<?xml version="1.0" encoding="utf-8"?>
<!-- Generator: Adobe Illustrator 19.2.1, SVG Export Plug-In . SVG Version: 6.00 Build 0)  -->
<svg version="1.1" id="Layer_1" xmlns="http://www.w3.org/2000/svg" xmlns:xlink="http://www.w3.org/1999/xlink" x="0px" y="0px"
	 viewBox="0 0 70.8 80.9" style="enable-background:new 0 0 70.8 80.9;" xml:space="preserve">
<style type="text/css">
	.st0{fill:#17313B;}
	.st1{fill:#FF3D2E;}
</style>
<g>
	<g>
		<path class="st0" d="M55.1,57c-4,3.6-9.3,5.6-15.1,5.6c-12.8,0-22.2-9.4-22.2-22.3S26.9,18.4,40,18.4c5.7,0,11.1,1.9,15.2,5.5
			l2.8,2.4l12.4-12.4L67.3,11C60.1,4.4,50.4,0.8,40,0.8C17,0.8,0.3,17.4,0.3,40.2S17.4,80.1,40,80.1c10.5,0,20.3-3.7,27.5-10.4
			l3-2.8L57.9,54.5L55.1,57z"/>
	</g>
	<circle class="st1" cx="39.4" cy="40.4" r="13.3"/>
</g>
</svg>