<?xml version="1.0" encoding="UTF-8"?>
<svg width="172px" height="49px" viewBox="0 0 172 49" version="1.1" xmlns="http://www.w3.org/2000/svg" xmlns:xlink="http://www.w3.org/1999/xlink">
    <!-- Generator: Sketch 60.1 (88133) - https://sketch.com -->
    <title>New Clutch Tagline logo_white</title>
    <desc>Created with Sketch.</desc>
    <g id="Page-1" stroke="none" stroke-width="1" fill="none" fill-rule="evenodd">
        <g id="Clutch-Sign-In" transform="translate(-315.000000, -182.000000)" fill-rule="nonzero">
            <g id="New-Clutch-Tagline-logo_white" transform="translate(315.000000, 182.000000)">
                <rect id="Rectangle" fill="#FFFFFF" x="45" y="0" width="7" height="48"></rect>
                <path d="M78.5969063,32.510723 C78.5969063,39.96507 72.5680145,40.5626043 70.7203833,40.5626043 C66.1117794,40.5626043 65.4246785,36.1933993 65.4246785,33.5913702 L65.4246785,15 L58.0006366,15 L58.0006366,33.5701811 C57.9671195,38.1936561 59.2575286,41.9907538 61.7713125,44.5419289 C63.9918216,46.8049313 67.0837759,48 70.7161937,48 C73.5412436,47.9936257 76.29421,47.0975071 78.5927167,45.4361115 L78.5927167,47.3770387 L86,47.3770387 L86,15 L78.5969063,15 L78.5969063,32.5234365 L78.5969063,32.510723 Z" id="Path" fill="#FFFFFF"></path>
                <polygon id="Path" fill="#FFFFFF" points="102.804533 4 95.2531418 4 95.2531418 15.0689655 90 15.0689655 90 22.2586207 95.2531418 22.2586207 95.2531418 48 102.804533 48 102.804533 22.2586207 109 22.2586207 109 15.0689655 102.804533 15.0689655"></polygon>
                <path d="M133.454856,39.0786274 C131.674353,40.6530517 129.372816,41.5055338 126.99943,41.4696968 C121.509541,41.4696968 117.523498,37.4460155 117.523498,31.9011341 C117.523498,26.3562528 121.419823,22.5211146 126.99943,22.5211146 C129.364264,22.4997903 131.657029,23.3368478 133.454856,24.8779034 L134.63828,25.9191756 L139.94446,20.5928328 L138.641413,19.4015832 C135.436098,16.5283675 131.27673,14.958971 126.978069,15.0008157 C117.151809,15.0008157 110,22.1097478 110,31.9054192 C110,41.7010906 117.301339,48.9985658 126.978069,48.9985658 C131.31633,49.054827 135.513518,47.4539589 138.718314,44.520667 L140,43.3165622 L134.599829,38.0116448 L133.454856,39.0786274 Z" id="Path" fill="#FFFFFF"></path>
                <path d="M168.230948,18.5243129 C166.011767,16.2663848 162.921662,15.0739958 159.291416,15.0739958 C156.466625,15.0794776 153.713712,15.9736288 151.415416,17.6321353 L151.415416,0 L144,0 L144,48 L151.415416,48 L151.415416,30.5116279 C151.415416,23.0739958 157.440702,22.4778013 159.291416,22.4778013 C163.897264,22.4778013 164.583954,26.8372093 164.583954,29.4376321 L164.583954,47.9788584 L171.99937,47.9788584 L171.99937,29.4714588 C172.032867,24.858351 170.730668,21.0739958 168.230948,18.5243129 Z" id="Path" fill="#FFFFFF"></path>
                <circle id="Oval" fill="#FF3D2E" cx="126.5" cy="31.5" r="5.5"></circle>
                <path d="M33.6245373,36.9233318 C30.6751787,39.9340715 26.6256729,41.6264532 22.4008461,41.6139707 C13.7281861,41.6139707 7.43310418,34.8559138 7.43310418,25.5420061 C7.43310418,16.2280983 13.7281861,9.406882 22.4008461,9.406882 C26.5969657,9.4048219 30.6197747,11.0724609 33.5737705,14.0385721 L34.7540984,15.2133371 L39.9492332,10.0468974 L38.8069804,8.87213232 C34.5109977,4.44719556 28.583086,1.9642773 22.4008461,2 C9.63299841,2 0,12.1058941 0,25.5293742 C0,38.9528542 9.62876785,48.9994111 22.4008461,48.9994111 C28.6033099,49.0439439 34.5540725,46.5610582 38.8704389,42.1276672 L40,40.9697447 L34.8175568,35.7148818 L33.6245373,36.9233318 Z" id="Path" fill="#FFFFFF"></path>
            </g>
        </g>
    </g>
</svg>