<svg data-v-25ce8950="" version="1.1" id="Layer_1" xmlns="http://www.w3.org/2000/svg" xmlns:xlink="http://www.w3.org/1999/xlink" x="0px" y="0px" viewBox="0 0 15 15" enable-background="new 0 0 15 15" xml:space="preserve" width="15"  height="15" ><path fill="#3e839e" d="M7,5c0-0.3,0.3-0.6,0.6-0.6S8.1,4.6,8.1,5c0,0.3-0.3,0.6-0.6,0.6S7,5.3,7,5z M7.1,11.5H8V6.4H7.1V11.5zM15,7.5c0,4.1-3.4,7.5-7.5,7.5S0,11.6,0,7.5S3.4,0,7.5,0S15,3.4,15,7.5z M14,7.5C14,3.9,11.1,1,7.5,1S1,3.9,1,7.5S3.9,14,7.5,14S14,11.1,14,7.5z"></path></svg>